<svg id="Camada_1" data-name="Camada 1" xmlns="http://www.w3.org/2000/svg" viewBox="0 0 475.95 641.44"><defs><style>.cls-1{fill:none;stroke:#fff;stroke-miterlimit:10;stroke-width:12px;}.cls-2,.cls-3{fill:#fff;}.cls-3{isolation:isolate;font-size:125.48px;font-family:Moranga-Black, Moranga;font-weight:800;letter-spacing:0.03em;}.cls-4{letter-spacing:0.03em;}.cls-5{letter-spacing:0.03em;}.cls-6{letter-spacing:0.02em;}.cls-7{letter-spacing:0.03em;}</style></defs><title>Cultiva logo</title><g id="Camada_5" data-name="Camada 5"><circle class="cls-1" cx="238.87" cy="225.4" r="219.4"/></g><g id="Camada_9" data-name="Camada 9"><path class="cls-2" d="M470,602.5c-10.9-14.8-27.3-28.1-30.6-47.1-2-11.7-1-24.4-.8-36.2.1-5.8.2-11.6.3-17.3,0-2.3.6-5.4-.1-7.6-.6-1.9-2.6-3.9-3.9-5.2a30.69,30.69,0,0,0-10.2-6.9c-2.1-.9-4.5-1.3-6.4-2.3-3-1.7-3.3-5.5-4.4-8.4a94.84,94.84,0,0,0-6.5-12.7c-2.6-4.5-6.3-9.8-6.6-15.2-.5-9.3,8.4-16,11.9-23.9,2.9-6.6-5.2-11.3-10.7-13-4.7-1.5-10.3-1.2-14.6-3.9s-6.2-9.1-9.3-13a18.12,18.12,0,0,0-10-6.5c-2.1-.6-4-2.5-6.2-2.9-1.7-.3-2.4.6-3.6,1-3,1.1-2.8,6.1.8,5.9a8.16,8.16,0,0,0,5.1-2c2.1-1.7.3-5.1-2.1-5.1a36.18,36.18,0,0,0-4.6.2,3,3,0,0,0,0,6,16.39,16.39,0,0,0,5.4-.3c3.4-.6,2.5-5.9-.8-5.9-7.3,0-15.1-.8-21.6-4.4-7.7-4.2-10.6-11.5-11.7-19.8-.8-5.8-.9-12-4.2-17.1-2.1-3.4-7.2-7.6-11.4-5.2-3.5,1.9-3.4,6.8-2.5,10.2a18.78,18.78,0,0,0,3.2,6.3,25.09,25.09,0,0,1,2.6,4.5c1.1,3.2-.1,6.9-3.7,4.4-2.6-1.8-4.1-7.2-5.2-10a124.76,124.76,0,0,1-4.1-12.2,111.16,111.16,0,0,1-3.7-28.1c0-3.9-6-3.9-6,0a114,114,0,0,0,3.4,27.9c2,7.9,4.6,16.9,9.1,23.8,2.9,4.4,8.9,8.8,13.7,4.3,5-4.7,2.5-12.2-.6-17-1.3-2.1-3.5-4.6-3.3-7.3.2-2,.6-1.6,2.2.2a13.87,13.87,0,0,1,2.9,5.5c2.2,7.3,1.4,15.1,4.5,22.3,6.2,14.2,22.3,17.9,36.4,17.9-.3-2-.5-3.9-.8-5.9a9.73,9.73,0,0,1-3.8.1v6c1.5-.1,3-.2,4.6-.2l-2.1-5.1c-.3.1-.6.1-.9.2.3,2,.5,3.9.8,5.9,2.5-.9,1.3-1.1,3.2.6,1,.9,2.5,1,3.7,1.4,5.6,1.6,7.8,5.9,10.6,10.7,1.9,3.3,3.7,6.3,7.1,8.2,3.7,2.2,7.9,2.7,11.9,3.5a21.61,21.61,0,0,1,7.4,2.5c.8.5,3.3,2,3.6,2.8.6,1.5-5.4,8.6-6.6,10.5-4.2,6.4-7.5,13.5-5.1,21.3,2.9,9.6,10.2,17.3,13.3,26.8,1.2,3.6,1.4,6.4,4.7,8.8,3.8,2.8,8.7,3.2,12.8,5.7a19.55,19.55,0,0,1,5.3,4.6c1.8,2.5,1.3,5.6,1.2,8.5l-.3,18.3c-.2,11.1-.8,22.7.7,33.7,2.7,20.8,19.7,34.8,31.5,50.8,2.2,2.5,7.4-.4,5.1-3.6Z" transform="translate(-263.93 -164.5)"/><path class="cls-2" d="M525.8,443.2c5.2.8,11,2,15.3,5.2,6.4,4.8,1.1,11-3.4,15-4.7,4.2-8.2,8.1-9.1,14.6-1.2,9.1.9,17.6-6.1,24.9-4.7,4.9-10.8,8.2-15.9,12.5a33.14,33.14,0,0,0-10.7,16.7c-1.1,3.9-1.9,8.1-3.8,11.7-2.3,4.2-5.8,6.3-10.1,8-5.9,2.3-12.1,4.2-15.9,9.6-4.1,5.8-4.4,13.5-2.4,20.2,1.4,4.6,3.9,8.6,6.1,12.8,2.7,5,3.7,10.3,5.2,15.7,1,3.7,6.8,2.1,5.8-1.6-1.2-4.5-2-9.1-3.9-13.4-1.7-3.9-4.1-7.4-5.9-11.2-3.8-8.1-3.9-18.5,4.9-23.3,6.4-3.4,13.8-4.3,18.7-10.1,5.6-6.6,5.4-15.3,9.2-22.7,6.5-12.6,23.4-15.7,28.7-29.5,3.1-7.9-.8-18.2,4-25.3,3.8-5.6,10.2-8.3,12.8-15,5.1-13.5-11.9-19.1-21.9-20.7-3.8-.4-5.4,5.3-1.6,5.9Z" transform="translate(-263.93 -164.5)"/><path class="cls-2" d="M422.3,396.3c10.7-.8,21.2.3,31.7,2.3,2.5.5,5.1.8,7.5,1.5,2.8.8,3.9,1.8,5.9,3.9a129.06,129.06,0,0,0,10.1,9.5c7,5.9,14.4,11.2,21.6,16.7,3.2,2.5,7,5,9.9,7.8,2.3,2.3,3.6,4.1,7.1,3.8,3.8-.3,3.9-6.3,0-6-1.9.2-7.5-5.7-9.1-6.9-3.5-2.8-7.1-5.5-10.7-8.2-7.5-5.6-15-11.3-21.7-17.8-2.5-2.4-4.8-6.2-7.9-7.8-2-1-5.2-1.1-7.4-1.5-2.5-.5-5-1-7.5-1.4a117.37,117.37,0,0,0-29.6-1.8c-3.7.2-3.7,6.3.1,5.9Z" transform="translate(-263.93 -164.5)"/><path class="cls-2" d="M497,283.5a24.29,24.29,0,0,0-4.6-3v5.2l5.1-3a3.05,3.05,0,0,0-.7-5.5,43.85,43.85,0,0,0-28.4.4c-2,.7-3.1,3.4-1.3,5l8.1,7.5c1-1.7,1.9-3.3,2.9-5-8-2.9-14.9.8-20.6,6.3-3.3,3.1-6,6.7-9.2,9.9-3.4,3.6-7.2,5.2-11.5,7.4-6.9,3.5-10.4,9.9-14.4,16.2a58.8,58.8,0,0,1-7.3,9.9c-2.5,2.6-6.1,4.1-8.1,7.1-1.6,2.3-2.3,7.1-4.4,2.1-1.1-2.6-1.6-5.3-4.6-6.3-2.5-.8-5.3.2-7.8.1a45.21,45.21,0,0,0-12.7,1.1c-12.2,3.2-31.2,17.3-23.8,32.1,2.9,5.8,10,8,16.1,6.9,4-.7,7.9-2.9,11.6-4.4,3.9-1.6,5.4-4.9,8.7-7.3-1.2-1.6-2.4-3.1-3.6-4.7a15.45,15.45,0,0,1-2.4,1.9c1.2,1.6,2.4,3.1,3.6,4.7.8-.6,1.6-1.2,2.4-1.9-1.5-1.1-2.9-2.3-4.4-3.4a12.66,12.66,0,0,1-.6,1.8c-1.2,2.2-1.7,2.4.5,3.9,2.5,1.7,1.8,1,3.4-.9.5-.6,1.2-1.3,1.7-1.9-1.7-1-3.3-1.9-5-2.9a35.77,35.77,0,0,0,5.8,31.3c6.3,8.3,16.7,9.1,25.5,4.5,3.4-1.8.4-7-3-5.2-18,9.4-26.4-15.2-22.4-29a3,3,0,0,0-5-2.9c-2.3,2.3-8.2,8.6-3,11.1,4.7,2.3,6.9-5.2,8-8.2.8-2.3-2.3-5-4.4-3.4-1.2.9-2.4,1.8-3.6,2.8-2.7,2.1.8,6.6,3.6,4.7a24.76,24.76,0,0,0,3.6-2.8c2.5-2.3-.8-6.7-3.6-4.7-2.2,1.5-3.6,3.7-5.6,5.4-2.4,2.1-6.5,3.2-9.4,4.5-6.1,2.7-14.7.7-13.7-7.4,1-7.9,8.8-14.1,15.5-17a34.68,34.68,0,0,1,11.4-2.8c1.6-.1,3.3.1,4.9.1,1.4,0,3.1-.5,4.4-.3,3.6.5,3.5,8,8.2,9.3s6.7-2.5,8.4-6.1c1.3-2.7,3.9-3.8,6.1-5.7a40.93,40.93,0,0,0,6.2-7c3.8-5.2,6.6-11.3,10.9-16.1,2.7-3.1,6.5-4.4,10.1-6.2a28.56,28.56,0,0,0,8.7-6.7c5.9-6.5,13.3-17.8,23.4-14.1,2.8,1,5-3,2.9-5l-8.1-7.5c-.4,1.7-.9,3.3-1.3,5a39.15,39.15,0,0,1,25.3-.4c-.2-1.8-.5-3.7-.7-5.5l-5.1,3c-1.8,1.1-2.1,4.2,0,5.2a13.85,13.85,0,0,1,3.3,2c2.8,2.4,7.1-1.8,4-4.2Z" transform="translate(-263.93 -164.5)"/><path class="cls-2" d="M357.4,232.1c2.8-4.4,7.4-7.3,12.2-9.3,5.4-2.2,10.4-1,15.1,2.1,3.8,2.5,6.7,5.6,11.1,7.1a21.55,21.55,0,0,0,11.8.4c4.5-1.1,15.8-7.4,8.3-12.5-3.1-2.1-6.3-1.4-9.1.8-1.6,1.2-5.1,4.7-7.5,4.6-2-.1-2.6-2-1.5-3.5.9-1.2,3.2-2,4.5-2.4a3,3,0,0,0-.8-5.9,5.18,5.18,0,0,0-3,.5c-3,1.2-2.8,5.8.8,5.9a6.34,6.34,0,0,0,3-.5c2.5-.9,3.2-5.3,0-5.8-2.6-.4-5.2-.4-7.8-.7-1-.1-3.6-1.1-4.5-.8-.3-.1-.5-.2-.8-.3,0,1.3.6,1.7,1.6,1.1,1.1.2,3-.3,4.2-.3a362.73,362.73,0,0,1,41.7,2c-1-1.3-1.9-2.5-2.9-3.8a21.19,21.19,0,0,1-9,11.6c-2.3,1.5-1.6,5.8,1.5,5.6,5.8-.5,11.3,3.2,17.1.7a7.09,7.09,0,0,0,4.5-8.2c-.3-1.8-2.2-4-1.4-5.7a3.48,3.48,0,0,1,4.8-1.3c2.3,1.6,2.1,6,2.6,8.4a16.91,16.91,0,0,0,2.9,7.4,3.08,3.08,0,0,0,5.5-.7,5.78,5.78,0,0,0,.5-4.1,3,3,0,0,0-2.9-2.2c-3.4-.3-4.2,3.8-3.4,6.3.6,1.9,3.5,3.2,5,1.3,2.4-3.1,2.5-6.2,3.9-9.7a17,17,0,0,1,7.9-8.6c7.6-3.9,17.6-1.5,23.8,4,5.8,5.1,9.1,15.9.7,20.4-5.9,3.1-18.1,4.3-21.7-2.5-.6,1.5-1.2,2.9-1.8,4.4.6-1.5,1.2-2.9,1.8-4.4-.6,1.5-1.2,2.9-1.8,4.4,6-1.8,15.4-7.7,13.6-15.1-2.2-9.6-11.6-3.9-15.4.8-3.1,3.9-5.4,8.3-9.8,10.9a16.15,16.15,0,0,1-11.8,1.5c-2.5-.6-5-1.6-7.6-1.5-10.2.6-14.9,14.4-21.3,20.4a3,3,0,0,0,1.3,5c2.8,1.1,9.9,1.6,7.5-3.7-1.6-3.6-6.3-3.4-8.9-1.3a3,3,0,0,0,.6,4.7c9.2,4,22.3,10,31.4,2.8,4.4-3.5,5.7-8.9,8.5-13.6,4.9-8.2,16.3-1.5,18.6,5.6a3.07,3.07,0,0,0,4.4,1.8c3-1.8,3.5-6.1-.4-7.3-4.2-1.3-5.3,3.2-3.7,6.2a3,3,0,0,0,5.2,0,7.6,7.6,0,0,1,7.4-3.7c3.9.7,3.9,5.7,4.6,8.9,1,4.8,8.7,14.9.9,16.9.8,1.8,1.5,3.7,2.3,5.5a9.58,9.58,0,0,0,2.2-2.3c2-2.8-2.3-6-4.7-3.6a12,12,0,0,0-1.1,1.2c-1.4,1.5-1.1,4.7,1.3,5,.2,0,.4.1.6.1,3.8.6,5.4-5.2,1.6-5.8-.2,0-.4-.1-.6-.1.4,1.7.9,3.3,1.3,5,.4-.4.7-.8,1.1-1.2-1.6-1.2-3.1-2.4-4.7-3.6-.1,0-.1,0-.1.1-2.6,1.9-1.2,6.4,2.3,5.5,5-1.3,8.2-4.7,8-10a17.88,17.88,0,0,0-1.7-6.4,59.91,59.91,0,0,1-3.7-11.8c-1.3-5.3-3.9-9.1-9.6-9.4a13.65,13.65,0,0,0-12.6,6.7h5.2c-1.4-.4-2.7-.7-4.1-1.1,1.5.6,2.9,1.2,4.4,1.8-3.7-11.2-21.1-20.2-29-8-3.6,5.5-4.6,13.8-12.4,14.8-6.7.8-13.9-2.6-19.8-5.2.2,1.6.4,3.1.6,4.7-.9.7,0-.7.4-2,.9-2.9.6-2.1-1.8-3,.4,1.7.9,3.3,1.3,5,5.3-4.9,8.2-13.5,14.4-17.3,4.4-2.7,9.2.5,13.9.6a21.79,21.79,0,0,0,10.6-2.5c6-3.1,8.7-8.8,12.9-13.7.6-.7,2.5-3.2,3.5-3,2,.4-.6,3.6-1,4a17.45,17.45,0,0,1-7.8,4.7,3,3,0,0,0-1.8,4.4c1.7,2.7,6.5,6.2,8.1,1.1,1.3-4.1-3-6-6.3-5.5-2,.3-2.6,2.9-1.8,4.4,4.8,9.3,18.3,9.1,27,5.9,10.2-3.7,13.6-14.9,8.7-24.3-5-9.7-16.7-15.2-27.3-14.3a23.71,23.71,0,0,0-13.9,6,25.84,25.84,0,0,0-4.9,6.5c-1.5,2.9-1.4,6.8-3.3,9.3,1.7.4,3.3.9,5,1.3-.8.4-1.6.9-2.4,1.3-1-.7-1.9-1.5-2.9-2.2,0-.9-.1-.6-.5.9,1.8-.2,3.7-.5,5.5-.7-3.6-5-1.4-12.5-6.2-16.9a9.4,9.4,0,0,0-10.6-1.2,8.59,8.59,0,0,0-4.6,9.3c.2.9.9,1.8,1,2.7,1.1,1.4.8,2.5-.8,3.2a8.22,8.22,0,0,1-4.4,0c-3.4-.6-6.4-1.7-9.9-1.4.5,1.9,1,3.7,1.5,5.6a26.55,26.55,0,0,0,11.7-15.2c.7-2-1.1-3.6-2.9-3.8a269.12,269.12,0,0,0-31.1-2c-5.6,0-17.1-2.1-21,3.3-6.5,9,12.9,9,16.2,9.5v-5.8a6.75,6.75,0,0,1-1.4.2c.3,2,.5,3.9.8,5.9a6.75,6.75,0,0,1,1.4-.2c-.3-2-.5-3.9-.8-5.9-3.7,1.3-7.7,3.1-9.1,7.2-1.1,3.1-.2,7.5,2.6,9.5,3.3,2.4,8.3.6,11.4-1.3,1.2-.7,5.9-4.9,6.2-4.8-.8-.1-1.8.9-2.6,1.3a17.52,17.52,0,0,1-5.1,1.4c-10.6,1.2-16.7-10.4-27.1-11.4-9.4-.9-19.9,5.7-24.8,13.5-2.1,3.6,3.1,6.6,5.2,3.4Z" transform="translate(-263.93 -164.5)"/><path class="cls-2" d="M588.5,336.1c.9-6.9,3.9-11,10.9-12,5.2-.7,10.7.5,15.8-.3,4.3-.7,7.2-3.9,11.2-5.2s11.3,2.2,14.9,4.4c4.3,2.7,7.4,7.2,11.3,10.3a53.35,53.35,0,0,0,12.6,7.9c8.7,3.5,12-3.1,17.9-8-1,.3-1.9.5-2.9.8,7.9,1.3,14.2,7.5,22.3,8,5.3.4,11.6-3.1,12.7-8.6,1.4-7.1-4.4-9.7-10.3-10.6-7.8-1.3-18.2-6.5-13.4-16.3,1.7-3.4-3.3-6.5-5.2-3l-.6,1.2c-1.8,3.4,3.4,6.4,5.2,3l.6-1.2c1.2-2.2-.8-5.2-3.4-4.4-3.3,1-9.4,4.5-5.2,8.5,3.3,3.1,7-1.4,8.6-4.1a3,3,0,0,0-3.4-4.4c-6.1,1.2-8.9,6.3-11.1,11.6-.7,1.9-1.9,7.8-2.4,3.3a72.23,72.23,0,0,0-1.3-7.9c-2.3-10-8-19.5-19.4-19.1a3.09,3.09,0,0,0-2.9,2.2c-3.2,9,2.2,18.2,9.4,23.4.5-1.9,1-3.7,1.5-5.6l-.1.1c-1,1.7-1.9,3.3-2.9,5-.5-2.2-1.9-3-4.2-2.2a23.13,23.13,0,0,1-3.5-1.8,33.61,33.61,0,0,1-5.2-3.9,60.32,60.32,0,0,1-8.5-9.7,3.06,3.06,0,0,0-4.1-1.1c-3.3,2.1-3.2,6.8,1,7.7,5.2,1.1,5.1-4.4,2.6-7.2a3,3,0,0,0-4.2,0c-7.1,8.4-18.3,18.7-30.3,16.1-3.4-.8-10.5-6.6-4.6-8.9,3.6-1.4,7.8-1,11.5-2,4.4-1.3,5.2-5.3,5.4-9.5a20.59,20.59,0,0,1,0-4.3c.8-3.4,2.7-3.2,5-3.8a13.52,13.52,0,0,0,5.8-2.4c1.9-1.6,2.6-4,4-5.9a19.43,19.43,0,0,1,6.7-5.7,20,20,0,0,1,17.2-.7c2.1.9,4.4-.1,4.5-2.6.1-3.3-3.1-6.2-6.2-3.8s-.9,6.2,2.4,6.7c2.4.4,4-1.3,3.7-3.7-.9-6.7-2.5-14.2-9.5-17-5.6-2.3-12-.6-14.1,5.4,2,.3,3.9.5,5.9.8a29.63,29.63,0,0,1,7.1-18.8c2.5-2.9-1.7-7.2-4.2-4.2a36.85,36.85,0,0,0-8.9,23c-.1,3.5,4.8,3.9,5.9.8,1.6-4.4,7.8-.9,9.4,1.4,1.9,2.9,2.2,6.9,2.7,10.3l3.7-3.7-3.8,2.9c1.5-.9,3-1.7,4.5-2.6-9.7-4.1-20.8-2.7-28.6,4.6a31.9,31.9,0,0,0-4.6,5.7c-2.3,3.3-4,3.4-7.6,4.5-5.4,1.6-6.9,5.8-6.9,11.1,0,2.7.5,5.2-1.8,6.1-1.9.8-4.4.6-6.3.9-3.5.5-7.7,1.3-9.7,4.6-5.1,8.2,4.8,16,12,17,13.6,2,26-8.2,34.2-17.9h-4.2c1.2.2,2.4.3,3.6.5-1.4-.4-2.7-.7-4.1-1.1,5.3,7.3,13.2,17.2,22.7,18.7,3.2.5,6.6-.5,8.1-3.6,1.5-2.9.2-5.3-2.7-6.3s-5,3-2.9,5c1.5,1.4,2.3,1.9,4.4,1.6a3,3,0,0,0,1.5-5.6c-5.1-3.7-8.9-10.3-6.7-16.7-1,.7-1.9,1.5-2.9,2.2,6.6-.2,10.1,4,12.2,9.8,1.8,4.9,1.5,10.1,2.9,15s6.9,5.2,10.3,1.9c4.5-4.4,2.9-13.5,10.4-14.9-1.1-1.5-2.3-2.9-3.4-4.4-.3.5-1.2,1.3-1.3,1.8-.8,3,2.9,3.2,4.7,2.6-1.1-1.5-2.3-2.9-3.4-4.4l-.6,1.2c-1.8,3.4,3.4,6.4,5.2,3l.6-1.2c-1.7-1-3.5-2-5.2-3-5.8,11.8,2.8,22,14.2,24.6,2.2.5,5.6.3,7.5,1.7,5,3.6-4.2,6.5-7,6-6.7-1.2-12.3-7.2-19.3-7.5-5.4-.2-6.8,8-12.1,8.1-3.5.1-8-3.5-10.7-5.5a83.88,83.88,0,0,1-9.4-8.5c-4.6-4.5-10.7-7.5-16.8-9.5-5.8-1.9-10,1.2-15,3.8-4.3,2.3-8.9,1.3-13.6,1.4a33.54,33.54,0,0,0-12.2,1.9c-6.4,2.6-8.8,10.1-9.6,16.3-.5,3.7,5.5,3.7,6-.1Z" transform="translate(-263.93 -164.5)"/><path class="cls-2" d="M564.6,388.9a69.52,69.52,0,0,1-2.8-16.4c-.2-5.1-1-11.8,1.4-16.5,3.1-5.9,13.5-4.3,18.8-7.7,3.2-2.1.2-7.3-3-5.2-7,4.6-17.1,1.6-21.3,10.5-2.5,5.2-2.1,11.5-1.9,17.1a77,77,0,0,0,3,19.7c1.2,3.8,7,2.3,5.8-1.5Z" transform="translate(-263.93 -164.5)"/><path class="cls-2" d="M667.7,542.2c.7-6.2.4-12.5-2.1-18.2a28.54,28.54,0,0,0-5-7.9c-1.6-1.8-3.3-2.8-3.4-5.2-.1-2.1,1-4.5,1.5-6.5,2.1-8.1-1.9-15.2-2.8-23.2-.5-4.3-.6-8.7-.8-13-.2-3.8.3-9.3-1.1-12.9-1.1-2.8-3.9-4.5-5-7.6-1.2-3.4-1.3-7.1-1.5-10.7-.3-5.7-.4-11.5-4.5-15.9-2.3-2.4-4.8-3.6-7.8-5.1-4.3-2-8.1-4.8-12.4-6.8-5.7-2.7-12.1-2.1-18-.3-6.5,1.9-16.5,8.4-23.3,5.5-5.9-2.5-8.3-10.6-11.6-15.6-2.1-3.2-7.3-.2-5.2,3,5.4,8.2,9.5,20.4,21.6,19.1,6.8-.7,12.9-4.1,19.4-6,3.3-1,6.8-1.9,10.3-1.5,4.5.5,8.1,3.5,12,5.6,3.3,1.8,7.5,3.1,10.3,5.8s2.8,6.4,3.1,10.1c.4,6,.4,12.1,3.2,17.6,1.8,3.5,3.7,5.1,4.2,9.2.5,4.6.5,9.3.7,13.9a100,100,0,0,0,1.2,11c.9,4.8,3.6,9.8,2.6,14.7-.7,3.6-2.3,7.1-2.2,10.8s1.9,4.8,4.3,7.2c6.2,6.2,7.4,14.6,6.4,23-.6,3.7,5.4,3.7,5.9-.1Z" transform="translate(-263.93 -164.5)"/></g><g id="Camada_3" data-name="Camada 3"><path class="cls-2" d="M477,453.5l-54.9-54.9a21.79,21.79,0,0,1,0-30.8l94.4-94.4L602.1,359l-94.4,94.4A21.76,21.76,0,0,1,477,453.5Z" transform="translate(-263.93 -164.5)"/></g><g id="Camada_6" data-name="Camada 6"><polygon class="cls-2" points="272.07 128.8 366.87 37.2 366.97 37.1 374.67 33.8 371.17 41.6 277.17 133.9 272.07 128.8"/><polygon class="cls-2" points="281.77 138.5 376.57 46.9 376.67 46.8 384.37 43.5 380.87 51.2 286.87 143.5 281.77 138.5"/><polygon class="cls-2" points="291.17 147.8 385.97 56.3 386.07 56.2 393.77 52.9 390.27 60.6 296.27 152.9 291.17 147.8"/><polygon class="cls-2" points="302.47 159.2 397.27 67.6 397.37 67.5 405.07 64.2 401.57 72 307.57 164.2 302.47 159.2"/><polygon class="cls-2" points="312.47 169.2 407.27 77.6 407.37 77.5 415.07 74.2 411.57 81.9 317.57 174.2 312.47 169.2"/></g><g id="Camada_7" data-name="Camada 7"><path class="cls-2" d="M435.4,413.3l-5.6,5.6a5,5,0,0,0,0,7.1l19.9,19.9a5,5,0,0,0,7.1,0l5.6-5.6Q448.9,426.65,435.4,413.3Z" transform="translate(-263.93 -164.5)"/></g><g id="Camada_10" data-name="Camada 10"><path class="cls-2" d="M443.2,440.3l-8.2-8.2c-11.3,11.5-100.6,102.6-95.9,126.7,5.1,25.7,58.3,1,58.3,1s-50.6,17.5-47.5-9.5C353,524.4,436.8,446.2,443.2,440.3Z" transform="translate(-263.93 -164.5)"/></g><g id="Camada_8" data-name="Camada 8"><text class="cls-3" transform="translate(0 591.5)">Cu<tspan class="cls-4" x="172.66" y="0">l</tspan><tspan class="cls-5" x="217.08" y="0">ti</tspan><tspan class="cls-6" x="325.5" y="0">v</tspan><tspan class="cls-7" x="399.78" y="0">a</tspan></text></g></svg>